<?xml version="1.0" standalone="no"?>
<!DOCTYPE svg PUBLIC "-//W3C//DTD SVG 20010904//EN"
 "http://www.w3.org/TR/2001/REC-SVG-20010904/DTD/svg10.dtd">
<svg version="1.0" xmlns="http://www.w3.org/2000/svg"
 width="1024.000000pt" height="1024.000000pt" viewBox="0 0 1024.000000 1024.000000"
 preserveAspectRatio="xMidYMid meet">

<g transform="translate(0.000000,1024.000000) scale(0.100000,-0.100000)"
fill="#000000" stroke="none">
<path d="M4790 7895 c-851 -107 -1555 -548 -2005 -1256 -143 -226 -294 -581
-339 -804 l-7 -30 51 3 c49 4 50 4 60 45 69 265 194 548 346 781 256 391 606
699 1029 906 314 154 622 236 985 261 1067 76 2020 -417 2534 -1311 91 -159
155 -305 222 -507 l57 -173 48 0 48 0 -25 90 c-173 632 -574 1186 -1122 1550
-337 225 -710 367 -1142 436 -146 23 -582 28 -740 9z"/>
<path d="M4776 5438 c-8 -13 -118 -284 -245 -603 -206 -517 -237 -587 -283
-648 -40 -55 -48 -71 -37 -78 17 -10 256 -11 282 0 17 6 15 10 -12 39 -48 50
-46 102 11 265 l42 117 212 0 211 0 52 -137 c28 -76 51 -152 51 -170 0 -19
-10 -43 -26 -62 -14 -17 -23 -35 -19 -41 8 -13 405 -14 405 -1 0 6 -17 30 -38
54 -60 69 -75 98 -160 312 -196 491 -384 950 -394 962 -16 19 -36 16 -52 -9z
m56 -576 c42 -108 80 -205 84 -214 6 -17 -6 -18 -169 -18 l-174 0 86 215 c47
118 88 215 91 214 3 0 40 -88 82 -197z"/>
<path d="M7966 5438 c-8 -13 -116 -277 -241 -588 -124 -311 -238 -585 -252
-609 -14 -24 -41 -61 -61 -83 -29 -32 -33 -41 -21 -49 20 -12 286 -12 294 1 4
6 -7 26 -24 46 -44 50 -42 95 15 249 l46 125 212 0 213 0 47 -129 c64 -176 66
-189 26 -234 -17 -20 -29 -41 -25 -47 6 -10 415 -15 415 -5 0 3 -22 35 -50 71
-64 84 -55 65 -175 362 -270 672 -358 888 -367 900 -16 18 -36 15 -52 -10z
m59 -588 c42 -107 79 -201 82 -207 4 -10 -34 -13 -170 -13 l-175 0 86 215 c48
118 89 211 93 207 3 -4 41 -95 84 -202z"/>
<path d="M1640 5422 c0 -2 19 -30 43 -63 l42 -60 3 -507 c2 -340 0 -519 -8
-544 -6 -20 -26 -59 -45 -87 -18 -28 -31 -51 -27 -51 4 0 134 0 290 0 403 1
506 23 614 130 65 65 88 124 88 225 0 81 -22 144 -71 199 -48 54 -93 83 -166
106 l-55 17 55 27 c71 34 142 110 157 167 17 63 8 175 -19 227 -53 104 -166
180 -298 201 -59 9 -603 21 -603 13z m529 -118 c159 -47 226 -268 119 -390
-17 -19 -48 -44 -69 -54 -43 -22 -159 -43 -216 -38 l-38 3 -3 235 c-1 129 0
240 2 247 8 19 140 17 205 -3z m63 -604 c52 -15 119 -68 145 -115 67 -119 22
-274 -97 -335 -52 -27 -144 -42 -235 -38 l-80 3 -3 254 -2 254 117 -6 c65 -3
135 -11 155 -17z"/>
<path d="M2920 5422 c0 -2 14 -21 30 -42 62 -78 60 -62 60 -620 0 -487 -1
-513 -20 -549 -10 -21 -31 -52 -45 -70 -15 -17 -23 -32 -18 -32 21 -3 409 4
412 7 3 2 -9 19 -26 37 -60 63 -62 74 -63 318 l-1 224 48 -3 c30 -2 53 -10 61
-20 7 -9 79 -123 159 -252 81 -129 163 -252 184 -272 l37 -38 148 0 149 0 -72
68 c-58 54 -103 114 -226 302 l-153 235 71 23 c91 30 159 82 199 152 29 52 31
61 31 160 0 95 -3 111 -28 162 -67 136 -191 197 -417 204 -247 7 -520 11 -520
6z m571 -117 c98 -35 154 -127 154 -250 -1 -60 -5 -79 -31 -125 -39 -69 -110
-115 -193 -126 -77 -10 -170 -11 -171 -1 0 4 0 122 0 262 l0 255 99 0 c63 0
114 -6 142 -15z"/>
<path d="M5670 5424 c0 0 19 -21 43 -46 70 -72 72 -92 53 -410 -9 -150 -21
-361 -26 -468 -14 -263 -17 -280 -76 -349 -15 -18 -25 -33 -23 -35 11 -10 288
-15 294 -6 4 6 -12 31 -34 56 -22 26 -43 61 -47 79 -5 28 10 342 34 720 l8
110 39 -85 c22 -46 121 -262 220 -480 169 -370 182 -395 208 -398 21 -3 29 2
37 23 15 40 344 791 381 870 22 47 34 63 36 50 5 -37 43 -679 43 -738 0 -66
-17 -106 -67 -159 -20 -20 -33 -40 -30 -45 6 -9 412 -11 422 -1 4 3 -14 31
-39 62 -25 31 -47 70 -50 88 -3 18 -17 254 -31 524 -28 542 -28 544 32 606 15
15 24 30 22 32 -2 3 -70 2 -151 -1 l-147 -6 -144 -326 c-79 -179 -171 -388
-203 -463 -33 -76 -61 -138 -64 -138 -3 0 -15 24 -27 53 -12 28 -66 149 -121
267 -55 118 -139 301 -187 405 -48 105 -90 193 -94 197 -4 5 -311 17 -311 12z"/>
<path d="M6942 3527 c-19 -6 -55 -29 -80 -52 -44 -40 -46 -44 -49 -106 -3 -51
0 -70 16 -96 29 -46 89 -86 193 -129 113 -47 158 -86 158 -139 0 -50 -31 -90
-85 -111 -84 -32 -173 1 -225 82 l-27 43 -37 -23 -37 -22 33 -49 c19 -28 54
-62 82 -80 43 -26 61 -30 132 -34 71 -3 90 0 137 22 75 34 110 82 115 158 3
35 -1 72 -8 89 -20 49 -84 95 -193 141 -127 54 -167 87 -167 139 0 58 67 111
140 110 31 -1 104 -41 135 -76 l33 -36 31 18 c17 10 31 23 31 28 0 22 -99 104
-145 120 -54 18 -133 19 -183 3z"/>
<path d="M3015 3175 l0 -355 223 0 222 0 0 40 0 40 -180 0 -180 0 0 120 0 120
160 0 160 0 0 40 0 40 -160 0 -160 0 0 115 0 115 180 0 180 0 0 40 0 40 -222
0 -223 0 0 -355z"/>
<path d="M3689 3508 c14 -37 142 -349 217 -530 l69 -168 41 0 c31 0 43 4 47
18 2 9 63 171 135 360 l130 342 -47 0 c-45 0 -46 -1 -62 -42 -65 -177 -203
-534 -209 -541 -6 -6 -164 386 -221 546 -13 36 -15 37 -61 37 -45 0 -47 -1
-39 -22z"/>
<path d="M4560 3175 l0 -355 218 0 217 0 0 40 0 40 -177 0 -178 0 0 120 0 120
149 0 149 0 4 40 4 40 -153 0 -153 0 0 115 0 115 174 0 174 0 4 40 4 40 -218
0 -218 0 0 -355z m187 -341 c-3 -3 -12 -4 -19 -1 -8 3 -5 6 6 6 11 1 17 -2 13
-5z"/>
<path d="M5280 3175 l1 -355 47 0 47 0 -2 270 c-1 149 1 270 5 269 4 0 98
-121 210 -270 l203 -269 39 0 40 0 0 355 0 355 -46 0 -45 0 3 -280 c2 -207 0
-276 -8 -267 -17 18 -384 498 -402 525 -11 16 -24 22 -53 22 l-39 0 0 -355z"/>
<path d="M6090 3493 l0 -38 110 0 110 0 0 -317 0 -318 43 0 42 0 0 317 0 318
107 0 108 0 0 38 0 37 -260 0 -260 0 0 -37z"/>
</g>
</svg>
